<svg xmlns="http://www.w3.org/2000/svg" width="32" height="32" viewBox="0 0 501.6 501.6">
    <g transform="scale(-1,1) translate(-501.6,0)">
        <path fill="yellow" d="M491.798,266.933c0,0-60.8-49.067-58.667-77.867c1.067-10.667,7.467-23.467,8.533-34.133c3.2-34.133-61.867-96-96-96c-10.667,0-23.467,7.467-34.133,8.533c-28.8,3.2-77.867-58.667-77.867-58.667c-11.733-11.733-32-11.733-44.8,0l-44.8,46.933c-11.733,11.733-11.733,32,0,44.8l88.533,88.533L0.064,420.533L81.131,501.6l232.533-232.533l88.533,88.533c11.733,11.733,32,11.733,44.8,0l45.867-45.867C504.598,298.933,504.598,278.667,491.798,266.933z"/>
    </g>
</svg>